<svg width="39" height="45" viewBox="0 0 39 45" fill="none" xmlns="http://www.w3.org/2000/svg">
<path d="M37.8359 30.9977C37.6705 30.7985 37.5082 30.5992 37.3488 30.407C35.1574 27.7564 33.8316 26.1567 33.8316 18.6531C33.8316 14.7683 32.9022 11.5808 31.0704 9.1902C29.7197 7.42412 27.8939 6.08438 25.4873 5.09426C25.4563 5.07703 25.4287 5.05443 25.4056 5.02752C24.54 2.12889 22.1713 0.1875 19.4998 0.1875C16.8283 0.1875 14.4605 2.12889 13.5949 5.02453C13.5719 5.0505 13.5446 5.07239 13.5142 5.08928C7.89827 7.40121 5.16898 11.8368 5.16898 18.6501C5.16898 26.1567 3.84517 27.7564 1.65177 30.404C1.49239 30.5963 1.33003 30.7915 1.16468 30.9947C0.737556 31.5098 0.466938 32.1365 0.384852 32.8006C0.302766 33.4647 0.412649 34.1384 0.701496 34.742C1.31609 36.0369 2.62595 36.8408 4.12109 36.8408H34.8894C36.3776 36.8408 37.6785 36.0379 38.2951 34.749C38.5852 34.1452 38.6961 33.471 38.6147 32.8061C38.5333 32.1412 38.263 31.5136 37.8359 30.9977ZM19.4998 44.8125C20.9392 44.8113 22.3514 44.4206 23.5867 43.6818C24.822 42.943 25.8343 41.8836 26.5163 40.616C26.5484 40.5552 26.5643 40.4872 26.5623 40.4185C26.5604 40.3498 26.5407 40.2828 26.5052 40.2239C26.4697 40.1651 26.4196 40.1164 26.3598 40.0826C26.2999 40.0489 26.2324 40.0312 26.1636 40.0312H12.8379C12.7691 40.031 12.7014 40.0486 12.6414 40.0823C12.5814 40.116 12.5312 40.1646 12.4956 40.2235C12.46 40.2824 12.4402 40.3495 12.4382 40.4182C12.4363 40.487 12.4521 40.5551 12.4843 40.616C13.1661 41.8834 14.1783 42.9427 15.4134 43.6815C16.6485 44.4204 18.0606 44.8112 19.4998 44.8125Z" fill="black"/>
</svg>
